<svg xmlns="http://www.w3.org/2000/svg" width="256" height="256" viewBox="0 0 256 256" version="1.1"><path d="M 5.854 31.090 C 2.257 33.314, 0.015 56.617, 2.352 67.500 C 3.178 71.350, 4.174 78.883, 4.564 84.241 C 4.994 90.156, 5.777 94.400, 6.557 95.047 C 7.928 96.185, 54.480 97.799, 98.603 98.238 C 119.258 98.444, 124.015 98.233, 125.443 97.047 C 126.991 95.763, 127.107 94.247, 126.516 83.053 C 126.152 76.149, 125.377 68.962, 124.794 67.082 C 124.211 65.202, 123.669 56.993, 123.589 48.839 C 123.475 37.245, 123.123 33.704, 121.972 32.588 C 120.741 31.395, 111.204 31.108, 63.654 30.831 C 32.389 30.649, 6.379 30.765, 5.854 31.090 M 138.983 33.023 C 136.877 35.982, 136.787 36.727, 137.614 44.345 C 138.101 48.830, 138.500 62.077, 138.500 73.782 C 138.500 91.603, 138.744 95.221, 140 96.031 C 140.931 96.631, 161.875 96.904, 195.223 96.749 L 248.946 96.500 251.170 94.275 C 253.385 92.060, 253.389 91.995, 252.011 80.275 C 251.250 73.799, 250.656 67.150, 250.692 65.500 C 250.755 62.620, 247.415 40.266, 246.411 36.843 C 246.143 35.932, 244.154 34.479, 241.991 33.613 C 237.781 31.929, 229.783 31.568, 171.869 30.448 L 141.238 29.856 138.983 33.023 M 145.680 38.725 C 145.421 39.151, 145.645 42.200, 146.177 45.500 C 146.708 48.800, 146.998 59.842, 146.822 70.037 L 146.500 88.574 195 88.537 L 243.500 88.500 243.400 83 C 243.229 73.589, 241.944 59.891, 240.336 50.332 C 239.009 42.443, 238.493 41.090, 236.641 40.625 C 235.457 40.328, 222.341 39.836, 207.494 39.533 C 192.647 39.229, 172.771 38.749, 163.325 38.465 C 153.878 38.181, 145.938 38.298, 145.680 38.725 M 11.482 40.029 C 9.875 42.630, 9.799 59.291, 11.350 69.140 C 12.247 74.838, 13.098 81.300, 13.241 83.500 L 13.500 87.500 29.500 88.145 C 38.300 88.500, 61.813 89.020, 81.750 89.301 L 118 89.812 118 80.971 C 118 76.109, 117.521 70.870, 116.935 69.329 C 116.349 67.788, 115.609 60.436, 115.291 52.990 L 114.712 39.452 63.404 39.244 C 30.299 39.110, 11.878 39.388, 11.482 40.029 M 168.500 101.085 C 160.250 101.514, 145.175 102.300, 135 102.833 C 124.825 103.366, 104.345 103.559, 89.489 103.261 C 64.808 102.766, 62.355 102.867, 61.056 104.432 C 59.394 106.435, 59.447 117.938, 61.189 133 C 61.793 138.225, 62.396 146.717, 62.530 151.871 C 62.701 158.445, 63.180 161.516, 64.137 162.160 C 65.806 163.283, 114.072 162.517, 129.500 161.121 C 135.550 160.574, 152.988 160.098, 168.250 160.063 C 202.773 159.985, 200.595 161.057, 199.640 144.608 C 199.285 138.498, 198.747 128.100, 198.445 121.500 C 197.754 106.421, 197.299 103.441, 195.389 101.532 C 193.707 99.850, 192.618 99.832, 168.500 101.085 M 155.500 110.257 C 150 110.788, 128.326 111.213, 107.336 111.202 L 69.171 111.181 68.635 113.340 C 68.340 114.528, 68.530 119.775, 69.057 125 C 69.585 130.225, 70.308 139.167, 70.666 144.872 L 71.315 155.243 91.408 154.549 C 102.458 154.167, 115.550 153.465, 120.500 152.990 C 125.450 152.514, 143.314 151.809, 160.197 151.421 L 190.894 150.717 191.197 147.609 C 191.364 145.899, 191.186 141.350, 190.803 137.500 C 190.420 133.650, 189.814 125.662, 189.457 119.750 L 188.808 109 177.154 109.145 C 170.744 109.225, 161 109.725, 155.500 110.257 M 7.409 163.443 C 5.965 164.498, 5.552 165.967, 5.658 169.662 C 6.783 208.962, 7.758 223.982, 9.343 226.400 C 11.393 229.529, 12.290 229.724, 28 230.456 C 34.875 230.777, 45.225 231.722, 51 232.557 C 64.637 234.529, 97.683 236.982, 110.750 236.992 C 119.891 236.999, 121.231 236.769, 123.137 234.863 C 125.170 232.830, 125.246 232.070, 124.716 219.113 C 124.409 211.626, 124.628 198.193, 125.202 189.262 C 126.135 174.749, 126.071 172.758, 124.600 170.512 L 122.954 168 99.227 167.992 C 78.847 167.985, 36.257 165.470, 24.500 163.579 C 15.744 162.171, 9.219 162.119, 7.409 163.443 M 133.824 166.942 C 131.812 168.571, 131.723 169.725, 131.228 200.698 L 130.715 232.767 133.107 234.220 C 135.112 235.438, 138.741 235.542, 155.500 234.864 C 166.500 234.419, 191.380 234.025, 210.790 233.988 C 244.459 233.923, 246.170 233.830, 248.040 231.960 C 249.865 230.135, 249.999 228.536, 249.982 208.750 C 249.963 185.384, 248.822 170.871, 246.761 167.767 C 245.449 165.790, 244.329 165.745, 190.664 165.502 C 140.560 165.276, 135.730 165.398, 133.824 166.942 M 14.489 174.751 C 14.901 176.813, 15.523 187.943, 15.869 199.485 L 16.500 220.470 20.500 221.177 C 22.700 221.566, 27.229 221.911, 30.564 221.942 C 33.899 221.974, 41.774 222.696, 48.064 223.546 C 74.558 227.128, 115.802 229.373, 116.108 227.250 C 116.168 226.838, 116.321 215.137, 116.449 201.250 L 116.680 176 93.469 176 C 73.536 176, 36.991 173.835, 18.119 171.536 L 13.739 171.002 14.489 174.751 M 140.453 174.076 C 140.220 174.453, 139.910 186.403, 139.765 200.631 L 139.500 226.500 148.500 226.299 C 153.450 226.189, 176.175 225.877, 199 225.607 L 240.500 225.116 240.782 201.308 C 240.937 188.214, 240.843 176.600, 240.573 175.500 C 240.092 173.534, 239.230 173.499, 190.480 173.445 C 163.198 173.415, 140.686 173.699, 140.453 174.076" stroke="none" fill="#070605" fill-rule="evenodd"/><path d="M 145.680 38.725 C 145.421 39.151, 145.645 42.200, 146.177 45.500 C 146.708 48.800, 146.998 59.842, 146.822 70.037 L 146.500 88.574 195 88.537 L 243.500 88.500 243.400 83 C 243.229 73.589, 241.944 59.891, 240.336 50.332 C 239.009 42.443, 238.493 41.090, 236.641 40.625 C 235.457 40.328, 222.341 39.836, 207.494 39.533 C 192.647 39.229, 172.771 38.749, 163.325 38.465 C 153.878 38.181, 145.938 38.298, 145.680 38.725 M 11.482 40.029 C 9.875 42.630, 9.799 59.291, 11.350 69.140 C 12.247 74.838, 13.098 81.300, 13.241 83.500 L 13.500 87.500 29.500 88.145 C 38.300 88.500, 61.813 89.020, 81.750 89.301 L 118 89.812 118 80.971 C 118 76.109, 117.521 70.870, 116.935 69.329 C 116.349 67.788, 115.609 60.436, 115.291 52.990 L 114.712 39.452 63.404 39.244 C 30.299 39.110, 11.878 39.388, 11.482 40.029 M 155.500 110.257 C 150 110.788, 128.326 111.213, 107.336 111.202 L 69.171 111.181 68.635 113.340 C 68.340 114.528, 68.530 119.775, 69.057 125 C 69.585 130.225, 70.308 139.167, 70.666 144.872 L 71.315 155.243 91.408 154.549 C 102.458 154.167, 115.550 153.465, 120.500 152.990 C 125.450 152.514, 143.314 151.809, 160.197 151.421 L 190.894 150.717 191.197 147.609 C 191.364 145.899, 191.186 141.350, 190.803 137.500 C 190.420 133.650, 189.814 125.662, 189.457 119.750 L 188.808 109 177.154 109.145 C 170.744 109.225, 161 109.725, 155.500 110.257 M 14.489 174.751 C 14.901 176.813, 15.523 187.943, 15.869 199.485 L 16.500 220.470 20.500 221.177 C 22.700 221.566, 27.229 221.911, 30.564 221.942 C 33.899 221.974, 41.774 222.696, 48.064 223.546 C 74.558 227.128, 115.802 229.373, 116.108 227.250 C 116.168 226.838, 116.321 215.137, 116.449 201.250 L 116.680 176 93.469 176 C 73.536 176, 36.991 173.835, 18.119 171.536 L 13.739 171.002 14.489 174.751 M 140.453 174.076 C 140.220 174.453, 139.910 186.403, 139.765 200.631 L 139.500 226.500 148.500 226.299 C 153.450 226.189, 176.175 225.877, 199 225.607 L 240.500 225.116 240.782 201.308 C 240.937 188.214, 240.843 176.600, 240.573 175.500 C 240.092 173.534, 239.230 173.499, 190.480 173.445 C 163.198 173.415, 140.686 173.699, 140.453 174.076" stroke="none" fill="#cd815d" fill-rule="evenodd"/></svg>