<svg width="20" height="21" viewBox="0 0 20 21" fill="none" xmlns="http://www.w3.org/2000/svg">
<path fill-rule="evenodd" clip-rule="evenodd" d="M14.6763 0.627059C11.5301 -0.0762072 8.26746 -0.0762073 5.12126 0.627059L4.78224 0.702842C2.97745 1.10627 1.553 2.49053 1.09811 4.28304C0.300631 7.42553 0.300631 10.7174 1.09811 13.8599C1.53263 15.5722 2.85186 16.9119 4.5422 17.3801L5.00686 20.1559C5.03695 20.3356 5.16246 20.4848 5.33443 20.5451C5.5064 20.6055 5.69758 20.5675 5.8334 20.4459L8.56412 18.0026C10.6086 18.1275 12.6662 17.9652 14.6763 17.5159L15.0153 17.4401C16.8201 17.0367 18.2446 15.6524 18.6995 13.8599C19.4969 10.7174 19.4969 7.42553 18.6995 4.28304C18.2446 2.49053 16.8201 1.10627 15.0153 0.702842L14.6763 0.627059ZM5.96472 4.20141C5.77897 4.17427 5.58952 4.21156 5.42791 4.30707H5.41413C5.03892 4.527 4.70092 4.80498 4.41269 5.13066C4.17316 5.4076 4.04322 5.68782 4.0091 5.95754C3.98875 6.11832 4.00253 6.2791 4.05044 6.43266L4.0675 6.44316C4.33722 7.23591 4.68963 7.99848 5.12013 8.71641C5.67467 9.72504 6.35713 10.6578 7.15057 11.4917L7.17419 11.5258L7.2116 11.5534L7.23522 11.5809L7.26278 11.6046C8.09965 12.4003 9.03472 13.086 10.0453 13.6449C11.2003 14.2735 11.9012 14.5708 12.3218 14.6942V14.7008C12.4452 14.7382 12.5574 14.7552 12.6703 14.7552C13.0288 14.729 13.3682 14.5834 13.6343 14.3418C13.9585 14.0535 14.2334 13.7141 14.4481 13.3371V13.3305C14.6495 12.9512 14.5813 12.5922 14.2906 12.3494C13.7083 11.8405 13.0788 11.3885 12.4104 10.9995C11.9628 10.7567 11.5081 10.9037 11.3237 11.1498L10.9306 11.6453C10.7291 11.8914 10.3629 11.8572 10.3629 11.8572L10.3524 11.8638C7.62175 11.1662 6.89332 8.40141 6.89332 8.40141C6.89332 8.40141 6.85919 8.02538 7.11185 7.83376L7.60403 7.43738C7.83963 7.24576 8.00369 6.79163 7.75103 6.34341C7.36477 5.67414 6.91373 5.0444 6.40441 4.46326C6.29306 4.32625 6.13685 4.23304 5.96341 4.2001L5.96472 4.20141ZM10.5792 2.9996C10.3031 2.9996 10.0792 3.22346 10.0792 3.4996C10.0792 3.77575 10.3031 3.9996 10.5792 3.9996C11.8437 3.9996 12.8944 4.41292 13.7245 5.20436C14.1518 5.63775 14.4844 6.15075 14.7028 6.71214C14.922 7.27564 15.0217 7.87651 14.9961 8.47836C14.9844 8.75426 15.1985 8.98742 15.4744 8.99915C15.7503 9.01088 15.9835 8.79674 15.9952 8.52084C16.0267 7.78041 15.9039 7.04165 15.6347 6.3496C15.3655 5.65759 14.9558 5.02698 14.4307 4.49608L14.4207 4.48647C13.3907 3.50144 12.0851 2.9996 10.5792 2.9996ZM10.5452 4.64393C10.2691 4.64393 10.0452 4.86779 10.0452 5.14393C10.0452 5.42007 10.2691 5.64393 10.5452 5.64393H10.5615C11.474 5.70823 12.1379 6.01237 12.6034 6.51161C13.0799 7.02577 13.3267 7.6644 13.3084 8.45457C13.302 8.73064 13.5207 8.95962 13.7967 8.96601C14.0728 8.9724 14.3018 8.75378 14.3082 8.47772C14.3322 7.44022 13.9985 6.54559 13.3363 5.83125L13.3354 5.83032C12.6588 5.10423 11.7305 4.72012 10.6122 4.64505L10.5955 4.64393H10.5452ZM10.5263 6.31828C10.2505 6.30377 10.0152 6.51555 10.0007 6.79131C9.98619 7.06707 10.198 7.30238 10.4737 7.3169C10.8924 7.33894 11.1592 7.46451 11.327 7.63395C11.4956 7.80411 11.6216 8.07658 11.6446 8.50382C11.6595 8.77957 11.895 8.99108 12.1708 8.97625C12.4465 8.96142 12.658 8.72586 12.6432 8.45012C12.6109 7.85009 12.4231 7.31962 12.0376 6.93029C11.6513 6.54023 11.1238 6.34974 10.5263 6.31828Z" fill="black"/>
</svg>
